HIERARCHY
ROOT SpineBase
{
  OFFSET 0.000000 0.000000 0.000000
  CHANNELS 6 Xposition Yposition Zposition Zrotation Xrotation Yrotation
  JOINT SpineMid
  {
    OFFSET 0.000000 31.834713 0.000000
    CHANNELS 3 Zrotation Xrotation Yrotation
    JOINT SpineShoulder
    {
      OFFSET -0.062804 23.751266 -0.837923
      CHANNELS 3 Zrotation Xrotation Yrotation
      JOINT Neck
      {
        OFFSET -0.045456 7.886715 -0.617750
        CHANNELS 3 Zrotation Xrotation Yrotation
        JOINT Head
        {
          OFFSET 7.174234 10.009587 3.297047
          CHANNELS 3 Zrotation Xrotation Yrotation
          End Site
          {
            OFFSET 0 0 0
          }
        }
      }
      JOINT ShoulderLeft
      {
        OFFSET -6.645822 -3.843604 -14.354159
        CHANNELS 3 Zrotation Xrotation Yrotation
        JOINT ElbowLeft
        {
          OFFSET -1.769390 -27.635136 -7.109320
          CHANNELS 3 Zrotation Xrotation Yrotation
          JOINT WristLeft
          {
            OFFSET 5.314133 -23.450162 -3.810962
            CHANNELS 3 Zrotation Xrotation Yrotation
            JOINT HandLeft
            {
              OFFSET 1.034163 -7.240219 0.781405
              CHANNELS 3 Zrotation Xrotation Yrotation
              JOINT HandTipLeft
              {
                OFFSET 2.924231 -6.519699 -0.421085
                CHANNELS 3 Zrotation Xrotation Yrotation
                End Site
                {
                  OFFSET 0 0 0
                }
              }
              JOINT ThumbLeft
              {
                OFFSET 0.315432 3.351512 -4.887962
                CHANNELS 3 Zrotation Xrotation Yrotation
                End Site
                {
                  OFFSET 0 0 0
                }
              }
            }
          }
        }
      }
      JOINT ShoulderRight
      {
        OFFSET 13.068201 -5.025608 21.597080
        CHANNELS 3 Zrotation Xrotation Yrotation
        JOINT ElbowRight
        {
          OFFSET -2.191028 -32.622910 -6.111606
          CHANNELS 3 Zrotation Xrotation Yrotation
          JOINT WristRight
          {
            OFFSET 5.356347 -24.303776 0.121136
            CHANNELS 3 Zrotation Xrotation Yrotation
            JOINT HandRight
            {
              OFFSET -3.764962 -7.416097 6.272550
              CHANNELS 3 Zrotation Xrotation Yrotation
              JOINT HandTipRight
              {
                OFFSET -0.498836 -0.580017 -0.743579
                CHANNELS 3 Zrotation Xrotation Yrotation
                End Site
                {
                  OFFSET 0 0 0
                }
              }
              JOINT ThumbRight
              {
                OFFSET -0.640006 -0.155020 -2.224086
                CHANNELS 3 Zrotation Xrotation Yrotation
                End Site
                {
                  OFFSET 0 0 0
                }
              }
            }
          }
        }
      }
    }
  }
  JOINT HipLeft
  {
    OFFSET -3.590545 1.941287 -8.243659
    CHANNELS 3 Zrotation Xrotation Yrotation
    JOINT KneeLeft
    {
      OFFSET -7.039364 -36.829606 0.701005
      CHANNELS 3 Zrotation Xrotation Yrotation
      JOINT AnkleLeft
      {
        OFFSET -7.740901 -31.940138 2.807911
        CHANNELS 3 Zrotation Xrotation Yrotation
        JOINT FootLeft
        {
          OFFSET 5.527618 -5.703534 -3.290417
          CHANNELS 3 Zrotation Xrotation Yrotation
          End Site
          {
            OFFSET 0 0 0
          }
        }
      }
    }
  }
  JOINT HipRight
  {
    OFFSET 2.841737 0.293770 1.058116
    CHANNELS 3 Zrotation Xrotation Yrotation
    JOINT KneeRight
    {
      OFFSET -16.907163 -32.849090 -2.053201
      CHANNELS 3 Zrotation Xrotation Yrotation
      JOINT AnkleRight
      {
        OFFSET -3.431824 -33.155951 -4.442819
        CHANNELS 3 Zrotation Xrotation Yrotation
        JOINT FootRight
        {
          OFFSET 9.098345 -3.673398 -8.101852
          CHANNELS 3 Zrotation Xrotation Yrotation
          End Site
          {
            OFFSET 0 0 0
          }
        }
      }
    }
  }
}
MOTION
Frames: 16
Frame Time: 0.033333
39.998977 76.805728 347.273116 -0.000000 0.000000 -55.335704 -0.000000 0.000000 55.335704 -0.000000 0.000000 0.000000 -0.000000 0.000000 0.000000 0.000000 0.000000 0.000000 -0.000000 0.000000 0.000000 -0.000000 0.000000 0.000000 -0.000000 0.000000 0.000000 -0.000000 0.000000 0.000000 0.000000 0.000000 0.000000 0.000000 0.000000 0.000000 -0.000000 0.000000 0.000000 -0.000000 0.000000 0.000000 -0.000000 0.000000 0.000000 -0.000000 0.000000 0.000000 0.000000 0.000000 0.000000 0.000000 0.000000 0.000000 -0.000000 0.000000 55.335704 -0.000000 0.000000 0.000000 -0.000000 0.000000 0.000000 0.000000 0.000000 0.000000 -0.000000 0.000000 55.335704 -0.000000 0.000000 0.000000 -0.000000 0.000000 0.000000 0.000000 0.000000 0.000000
39.929017 76.692791 347.041185 -0.172746 0.138888 -54.841231 0.213024 0.061253 54.841327 -0.000000 0.000000 0.000000 -0.000000 0.000000 0.000000 0.000000 0.000000 0.000000 -0.000000 0.000000 0.000000 -0.000000 0.000000 0.000000 0.150567 -2.623954 -0.354219 -0.052958 6.634568 2.137852 0.000000 0.000000 0.000000 0.000000 0.000000 0.000000 -0.000000 0.000000 0.000000 -0.000000 0.000000 0.000000 0.866733 1.906043 -0.253600 7.226197 -12.651161 0.265996 0.000000 0.000000 0.000000 0.000000 0.000000 0.000000 0.213024 0.061253 54.841327 -0.000000 0.000000 0.000000 -3.476855 -3.135999 -1.182197 0.000000 0.000000 0.000000 0.213024 0.061253 54.841327 -0.000000 0.000000 0.000000 -0.000000 0.000000 0.000000 0.000000 0.000000 0.000000
39.869375 76.601558 346.834540 -0.330204 0.256448 -54.324200 0.400893 0.118676 54.324523 -0.000000 0.000000 0.000000 -0.000000 0.000000 0.000000 0.000000 0.000000 0.000000 -0.000000 0.000000 0.000000 0.273921 -1.002494 -0.269541 0.054552 -3.806169 -0.368085 -0.251550 12.075155 3.884316 0.000000 0.000000 0.000000 0.000000 0.000000 0.000000 -0.000000 0.000000 0.000000 -0.000000 0.000000 0.000000 1.465344 3.725641 -0.724920 11.930026 -21.157102 2.628110 0.000000 0.000000 0.000000 0.000000 0.000000 0.000000 0.400893 0.118676 54.324523 -0.000000 0.000000 0.000000 -6.654950 -5.897034 -2.428405 0.000000 0.000000 0.000000 0.400893 0.118676 54.324523 -0.000000 0.000000 0.000000 -0.000000 0.000000 0.000000 0.000000 0.000000 0.000000
39.820050 76.532031 346.653181 -0.472644 0.352932 -53.786107 0.563987 0.172829 53.786712 -0.000000 0.000000 0.000000 -0.000000 0.000000 0.000000 0.000000 0.000000 0.000000 0.802951 -0.034209 -0.204245 -0.389134 -1.402292 -0.182486 0.112857 -5.080447 -0.459096 -0.509252 16.260113 5.230164 0.000000 0.000000 0.000000 0.000000 0.000000 0.000000 -0.000000 0.000000 0.000000 -0.000000 0.000000 0.000000 1.792669 5.478133 -1.421369 16.696382 -28.229525 6.347983 0.000000 0.000000 0.000000 0.000000 0.000000 0.000000 0.563987 0.172829 53.786712 -0.000000 0.000000 0.000000 -9.389212 -8.187000 -3.630359 0.000000 0.000000 0.000000 0.563987 0.172829 53.786712 -0.000000 0.000000 0.000000 -0.000000 0.000000 0.000000 0.000000 0.000000 0.000000
39.781043 76.484208 346.497107 -0.600300 0.428542 -53.228670 0.702623 0.224332 53.229540 -0.000000 0.000000 0.000000 -0.000000 0.000000 0.000000 0.000000 0.000000 0.000000 1.007589 -0.025636 -0.257508 -0.456841 -1.798117 -0.235323 0.194844 -5.893989 -0.484326 -0.754595 19.169054 6.158668 0.000000 0.000000 0.000000 0.000000 0.000000 0.000000 -0.000000 0.000000 0.000000 -0.000000 0.000000 0.000000 1.836097 7.187114 -2.359959 22.594091 -34.569324 11.625606 0.000000 0.000000 0.000000 0.000000 0.000000 0.000000 0.702623 0.224332 53.229540 -0.000000 0.000000 0.000000 -11.555224 -9.951516 -4.681314 0.000000 0.000000 0.000000 1.509032 -0.177481 53.675972 -0.153961 0.887719 -0.445569 -0.000000 0.000000 0.000000 0.000000 0.000000 0.000000
39.752353 76.458090 346.366319 -0.713368 0.483429 -52.653831 0.817060 0.273868 52.654887 -0.000000 0.000000 0.000000 -0.000000 0.000000 0.000000 0.000000 0.000000 0.000000 1.180288 -0.006885 -0.303340 -0.493180 -2.157827 -0.284480 0.300922 -6.225137 -0.443066 -0.934696 20.801439 6.654282 0.000000 0.000000 0.000000 0.000000 0.000000 0.000000 -0.000000 0.000000 0.000000 -0.000000 0.000000 0.000000 1.571741 8.881453 -3.568738 30.451267 -40.209009 18.941397 0.000000 0.000000 0.000000 0.000000 0.000000 0.000000 0.817060 0.273868 52.654887 -0.000000 0.000000 0.000000 -13.058202 -11.169596 -5.491095 0.000000 0.000000 0.000000 1.742066 -0.284165 53.200965 0.110242 0.125289 -0.479456 -0.225447 0.947811 -0.065945 0.000000 0.000000 0.000000
39.729832 76.435048 346.245917 -0.813120 0.536960 -52.063656 0.155342 0.052843 52.044730 0.676114 -0.446661 0.025303 -0.000000 0.000000 0.000000 0.000000 0.000000 0.000000 1.317343 0.086340 -0.345617 -0.553801 -2.697238 -0.351858 0.386284 -6.293527 -0.380507 -1.186286 21.478812 6.830815 0.000000 0.000000 0.000000 0.000000 0.000000 0.000000 -0.000000 0.000000 0.000000 -0.000000 0.000000 0.000000 0.858493 11.241185 -5.563895 45.859859 -46.415705 33.868937 0.000000 0.000000 0.000000 0.000000 0.000000 0.000000 0.923379 0.311206 52.064958 -0.000000 0.000000 0.000000 -10.207974 -8.721907 -3.845955 0.000000 0.000000 0.000000 1.904987 -0.460753 52.709750 0.197131 0.083837 -0.550859 -0.188904 1.163033 -0.093012 0.000000 0.000000 0.000000
39.725743 76.487779 346.161464 -0.892188 0.545289 -51.518500 0.135203 0.026509 51.495944 -0.033996 -0.043111 -0.035843 1.626899 -0.411895 -0.195188 0.000000 0.000000 0.000000 2.297396 -0.340771 -0.309730 -0.517421 -2.871203 -0.380468 0.663650 -5.192028 -0.123556 0.143573 19.407804 5.590419 0.000000 0.000000 0.000000 0.000000 0.000000 0.000000 0.821761 -0.411960 0.064927 -0.000000 0.000000 0.000000 -2.226229 12.756396 -8.872340 65.277827 -46.584991 47.397265 0.000000 0.000000 0.000000 0.000000 0.000000 0.000000 0.982019 0.359120 51.519668 -0.000000 0.000000 0.000000 -8.827256 -7.530362 -3.141667 0.000000 0.000000 0.000000 1.944886 -0.649194 52.244819 0.331480 -0.031141 -0.599675 -0.138591 1.408417 -0.125290 0.000000 0.000000 0.000000
39.744440 76.557065 346.142199 -0.945214 0.490162 -51.162425 0.096344 0.017385 51.136626 -0.044500 -0.052525 -0.040570 1.962135 -0.224065 -0.374658 0.000000 0.000000 0.000000 2.436252 -0.263324 -0.317174 -0.358338 -3.115632 -0.438932 0.616937 -3.733233 0.135810 0.949494 16.142397 4.308018 0.000000 0.000000 0.000000 0.000000 0.000000 0.000000 0.916230 -0.372402 0.072577 -0.000000 0.000000 0.000000 -3.120458 13.930992 -10.259304 68.725166 -45.646599 51.422909 0.000000 0.000000 0.000000 0.000000 0.000000 0.000000 0.974549 0.428881 51.162821 -0.000000 0.000000 0.000000 -5.515821 -4.554093 -1.559347 0.000000 0.000000 0.000000 2.044098 -0.754242 51.992014 0.227845 0.109687 -0.674339 2.028312 2.994297 -0.777806 0.000000 0.000000 0.000000
39.764050 76.628095 346.165820 -0.988671 0.414594 -50.591724 0.055841 0.020592 50.563162 -0.067106 -0.056285 -0.045469 2.210134 -0.014665 -0.540611 0.000000 0.000000 0.000000 2.511589 -0.198919 -0.309364 -0.193575 -3.108172 -0.455698 0.751624 -2.640639 0.331004 0.861295 13.827633 3.624592 0.000000 0.000000 0.000000 0.000000 0.000000 0.000000 1.004883 -0.326923 0.079673 -0.000000 0.000000 0.000000 -2.661200 16.830635 -11.760015 77.875821 -45.384587 61.677284 0.000000 0.000000 0.000000 0.000000 0.000000 0.000000 0.947980 0.500697 50.591159 -0.000000 0.000000 0.000000 -1.769839 -1.162046 -0.125694 0.000000 0.000000 0.000000 2.156956 -0.828513 51.525793 0.330257 0.476392 -0.810534 1.395103 2.421301 -0.558082 0.000000 0.000000 0.000000
39.765117 76.690893 346.185386 -1.039577 0.331452 -50.015438 -0.006009 -0.003035 49.982436 -0.107619 -0.052903 -0.053578 2.364239 0.202206 -0.655053 0.000000 0.000000 0.000000 2.660359 -0.098675 -0.302715 -0.155610 -3.094399 -0.442583 0.856324 -1.411265 0.499857 0.359663 11.171082 2.984036 0.000000 0.000000 0.000000 0.000000 0.000000 0.000000 1.153849 -0.279478 0.091562 -1.210400 -1.253969 -0.296328 0.599775 21.337784 -12.125048 81.700756 -45.938146 68.765706 0.000000 0.000000 0.000000 0.000000 0.000000 0.000000 1.186974 1.965858 49.900022 -1.228089 -0.687602 0.100462 0.933288 1.439688 0.832575 0.000000 0.000000 0.000000 1.205428 -0.255995 50.430531 0.956173 -1.729211 -0.227276 -1.857588 1.389011 0.156146 0.000000 0.000000 0.000000
39.780854 76.793267 346.229276 -1.119763 0.254700 -50.213518 -0.061328 -0.030144 50.175160 -0.133269 -0.046856 -0.061607 2.468615 0.353632 -0.700597 0.000000 0.000000 0.000000 2.770329 -0.004662 -0.281475 -0.072869 -3.095567 -0.446550 0.462210 -0.505447 0.583566 0.484335 10.222337 2.948919 0.000000 0.000000 0.000000 0.000000 0.000000 0.000000 1.315890 -0.233432 0.104387 -2.611935 -2.497386 -0.623513 4.551701 27.636278 -13.919987 85.534188 -45.719853 74.422576 0.000000 0.000000 0.000000 0.000000 0.000000 0.000000 1.351855 3.089545 50.007406 -2.945058 -2.074633 0.280586 10.398826 11.678122 3.351203 0.000000 0.000000 0.000000 1.574723 -0.156348 50.764799 1.197237 -0.879946 -0.492299 -7.937163 -3.805551 1.371523 0.000000 0.000000 0.000000
39.795786 76.882789 346.298936 -1.205233 0.185259 -50.658130 -0.107713 -0.070619 50.613949 -0.143566 -0.034893 -0.068674 2.724801 0.298690 -0.648141 0.000000 0.000000 0.000000 2.798656 0.076462 -0.240233 0.113984 -3.154965 -0.490418 -0.607788 0.419391 0.637298 2.169141 9.308582 2.804806 0.000000 0.000000 0.000000 0.000000 0.000000 0.000000 1.472101 -0.186074 0.116608 -4.233583 -3.836478 -1.016898 10.208393 33.857839 -15.521616 92.469076 -45.278924 84.751236 0.000000 0.000000 0.000000 0.000000 0.000000 0.000000 1.639581 4.382996 50.355715 -4.734606 -2.825363 0.291005 13.954988 15.532983 4.185563 0.000000 0.000000 0.000000 2.904351 -0.546188 51.877383 1.227555 2.798320 -1.516472 -18.240363 -14.496059 1.488834 0.000000 0.000000 0.000000
39.826027 77.017543 346.350197 -1.351876 0.126213 -52.012522 -0.150952 -0.121439 51.960261 -0.136107 -0.018517 -0.077051 3.631538 0.351057 -0.880609 0.000000 0.000000 0.000000 2.834037 0.139769 -0.183377 0.384720 -3.130456 -0.534859 -2.755902 0.657658 0.530601 3.867769 8.422810 2.767430 0.000000 0.000000 0.000000 0.000000 0.000000 0.000000 1.676963 -0.148225 0.132653 -5.910581 -5.123599 -1.440110 16.403799 39.003271 -17.005654 94.341840 -46.546050 87.794456 0.000000 0.000000 0.000000 0.000000 0.000000 0.000000 2.105240 5.642229 51.647614 -6.577144 -3.337366 0.250807 15.805076 17.388988 4.512051 0.000000 0.000000 0.000000 4.830173 -0.955549 54.161644 1.267234 8.354453 -3.015597 -36.210047 -30.546124 -2.791885 0.000000 0.000000 0.000000
39.870802 77.072821 346.438829 -1.576776 0.010282 -53.455663 -0.217530 -0.170510 53.391646 -0.108561 0.003778 -0.087613 4.447166 0.059971 -0.779097 0.000000 0.000000 0.000000 1.952073 -0.082221 0.153820 1.822349 -2.729109 -0.871555 -5.253170 1.235009 0.504741 6.543420 7.519552 2.757209 0.000000 0.000000 0.000000 0.000000 0.000000 0.000000 1.952073 -0.082221 0.153820 -7.422675 -6.197110 -1.832088 21.273205 46.474168 -23.637419 93.035854 -45.200161 87.019668 0.000000 0.000000 0.000000 0.000000 0.000000 0.000000 2.293975 6.931278 53.007449 -8.241404 -4.001923 0.219841 20.700349 21.598058 4.326382 0.000000 0.000000 0.000000 7.284801 -1.288573 56.780871 1.356888 15.137498 -4.936638 -64.567534 -44.577991 -20.013257 0.000000 0.000000 0.000000
39.939261 77.127309 346.445374 -1.960801 -0.109259 -54.929379 -0.278331 -0.250018 54.846572 -0.091899 0.030593 -0.106568 5.865380 -0.198382 -0.810800 0.000000 0.000000 0.000000 2.417211 0.002379 0.189304 1.908868 -2.461757 -0.826932 -7.338860 2.377844 0.555809 8.061044 4.932223 2.458162 0.000000 0.000000 0.000000 0.000000 0.000000 0.000000 2.417211 0.002379 0.189304 -7.471448 -4.954541 -1.474431 18.269212 42.153410 -20.812509 79.974698 -48.483123 70.855000 0.000000 0.000000 0.000000 0.000000 0.000000 0.000000 2.692136 7.978438 54.448820 -9.502349 -4.180312 0.158167 21.153558 22.551839 4.804663 0.000000 0.000000 0.000000 9.708810 -1.504505 59.417347 1.912114 21.751997 -6.993841 -94.302714 -46.999928 -45.164047 0.000000 0.000000 0.000000
